<svg width="152" height="152" viewBox="0 0 152 152" fill="none" xmlns="http://www.w3.org/2000/svg">
<circle cx="76" cy="76" r="74.5" stroke="white" stroke-width="3"/>
<path d="M102.305 76C102.305 96.8581 99.2095 115.676 94.2525 129.225C91.7718 136.005 88.8535 141.387 85.6886 145.046C82.5201 148.709 79.2413 150.5 76.0002 150.5C72.7591 150.5 69.4803 148.709 66.3118 145.046C63.1468 141.387 60.2286 136.005 57.7479 129.225C52.7909 115.676 49.6953 96.8581 49.6953 76C49.6953 55.1419 52.7909 36.3244 57.7479 22.7753C60.2286 15.9947 63.1468 10.6127 66.3118 6.95376C69.4803 3.29058 72.7591 1.5 76.0002 1.5C79.2413 1.5 82.5201 3.29058 85.6886 6.95376C88.8535 10.6127 91.7718 15.9947 94.2525 22.7753C99.2095 36.3244 102.305 55.1419 102.305 76Z" stroke="white" stroke-width="3"/>
<path d="M76 102.305C55.1419 102.305 36.3244 99.2093 22.7753 94.2523C15.9947 91.7716 10.6127 88.8533 6.95375 85.6884C3.29059 82.5198 1.5 79.2411 1.5 75.9999C1.5 72.7588 3.29059 69.4801 6.95375 66.3115C10.6127 63.1466 15.9947 60.2283 22.7753 57.7476C36.3244 52.7906 55.1419 49.6951 76 49.6951C96.8581 49.6951 115.676 52.7906 129.225 57.7476C136.005 60.2283 141.387 63.1466 145.046 66.3115C148.709 69.4801 150.5 72.7588 150.5 75.9999C150.5 79.2411 148.709 82.5198 145.046 85.6884C141.387 88.8533 136.005 91.7716 129.225 94.2523C115.676 99.2093 96.8581 102.305 76 102.305Z" stroke="white" stroke-width="3"/>
<path d="M131.963 76C131.963 96.6908 125.62 115.366 115.436 128.835C105.252 142.304 91.2949 150.5 75.9995 150.5C60.7042 150.5 46.7468 142.304 36.5633 128.835C26.379 115.366 20.0361 96.6908 20.0361 76C20.0361 55.3092 26.379 36.634 36.5633 23.1645C46.7468 9.69595 60.7042 1.5 75.9995 1.5C91.2949 1.5 105.252 9.69595 115.436 23.1645C125.62 36.634 131.963 55.3092 131.963 76Z" stroke="white" stroke-width="3"/>
<path d="M76 131.963C55.3092 131.963 36.634 125.62 23.1645 115.436C9.69593 105.253 1.5 91.2953 1.5 76C1.5 60.7047 9.69594 46.7473 23.1645 36.5637C36.634 26.3795 55.3092 20.0366 76 20.0366C96.6908 20.0366 115.366 26.3795 128.835 36.5637C142.304 46.7473 150.5 60.7047 150.5 76C150.5 91.2953 142.304 105.253 128.835 115.436C115.366 125.62 96.6908 131.963 76 131.963Z" stroke="white" stroke-width="3"/>
</svg>
